<svg width="131" height="46" viewBox="0 0 131 46" fill="none" xmlns="http://www.w3.org/2000/svg">
<path d="M127.516 18.1448C125.456 20.2045 122.923 21.2343 119.915 21.2343C116.907 21.2343 114.357 20.2045 112.265 18.1448C110.205 16.0851 109.175 13.5677 109.175 10.5926C109.175 7.61754 110.205 5.1165 112.265 3.08952C114.357 1.02984 116.907 0 119.915 0C122.923 0 125.456 1.02984 127.516 3.08952C129.608 5.1165 130.655 7.61754 130.655 10.5926C130.655 13.5677 129.608 16.0851 127.516 18.1448ZM113.932 4.56072C112.363 6.16269 111.578 8.17333 111.578 10.5926C111.578 13.0119 112.363 15.0389 113.932 16.6736C115.534 18.2756 117.528 19.0766 119.915 19.0766C122.301 19.0766 124.279 18.2756 125.849 16.6736C127.451 15.0389 128.252 13.0119 128.252 10.5926C128.252 8.17333 127.451 6.16269 125.849 4.56072C124.279 2.95874 122.301 2.15776 119.915 2.15776C117.528 2.15776 115.534 2.95874 113.932 4.56072ZM116.139 15.4476V5.3944H121.141C122.187 5.3944 123.037 5.67229 123.691 6.22808C124.345 6.78386 124.672 7.50312 124.672 8.38584C124.672 9.00701 124.475 9.54645 124.083 10.0042C123.691 10.4619 123.168 10.7561 122.514 10.8869C123.56 11.1157 124.116 11.8023 124.181 12.9466L124.279 14.3687C124.345 14.9899 124.41 15.3495 124.475 15.4476H122.122C122.056 15.3495 121.991 15.0226 121.925 14.4668L121.827 13.0937C121.762 12.211 121.337 11.7696 120.552 11.7696H118.493V15.4476H116.139ZM118.493 10.2003H120.699C121.746 10.2003 122.269 9.66088 122.269 8.582C122.269 8.15699 122.122 7.8137 121.827 7.55216C121.533 7.29061 121.157 7.15984 120.699 7.15984H118.493V10.2003Z" fill="white"/>
<path d="M81.2287 38.5944C85.0538 39.5752 87.6693 38.6271 89.0751 35.7501L89.4674 34.8674L79.3162 10.4455H87.3587L93.6358 26.3835L99.4716 10.4455H107.122L97.0686 35.4559C95.4994 39.4445 93.3253 42.2234 90.5463 43.7927C87.7674 45.3947 84.6615 45.7706 81.2287 44.9206V38.5944Z" fill="white"/>
<path d="M68.2768 36.2405C64.4843 36.2405 61.3621 34.9818 58.9101 32.4645C56.4581 29.9471 55.2321 26.7595 55.2321 22.9017C55.2321 19.0111 56.4581 15.8072 58.9101 13.2898C61.3621 10.7724 64.468 9.51373 68.2277 9.51373C72.4452 9.51373 75.7145 11.0667 78.0357 14.1725C80.3569 17.2457 81.1906 20.9564 80.5368 25.3046H62.8824C63.0131 26.7758 63.5853 27.9855 64.5988 28.9336C65.6122 29.8817 66.8709 30.3557 68.3748 30.3557C69.5845 30.3557 70.6797 30.0451 71.6605 29.424C72.6413 28.7701 73.3115 27.9364 73.6712 26.9229L80.0954 27.8547C79.605 30.2413 78.2646 32.2356 76.0741 33.8376C73.9164 35.4395 71.3172 36.2405 68.2768 36.2405ZM62.9314 19.665H73.2298C73.2298 18.4227 72.7557 17.3601 71.8076 16.4774C70.8595 15.5947 69.6662 15.1533 68.2277 15.1533C66.8219 15.1533 65.6286 15.5783 64.6478 16.4284C63.6997 17.2457 63.1276 18.3246 62.9314 19.665Z" fill="white"/>
<path d="M40.732 36.0444C36.8742 36.0444 33.6866 34.8184 31.1692 32.3664C28.6845 29.8817 27.4421 26.7268 27.4421 22.9017C27.4421 19.0438 28.6845 15.8889 31.1692 13.4369C33.6866 10.9522 36.8742 9.7099 40.732 9.7099C44.6225 9.7099 47.8101 10.9522 50.2948 13.4369C52.8122 15.8889 54.0709 19.0438 54.0709 22.9017C54.0709 26.7268 52.8122 29.8817 50.2948 32.3664C47.8101 34.8184 44.6225 36.0444 40.732 36.0444ZM36.6126 17.9977C35.5664 19.2727 35.0433 20.9074 35.0433 22.9017C35.0433 24.896 35.5664 26.5306 36.6126 27.8057C37.6915 29.048 39.0646 29.6692 40.732 29.6692C42.432 29.6692 43.8052 29.048 44.8513 27.8057C45.9302 26.5306 46.4697 24.896 46.4697 22.9017C46.4697 20.9074 45.9302 19.2727 44.8513 17.9977C43.8052 16.7226 42.432 16.0851 40.732 16.0851C39.0646 16.0851 37.6915 16.7226 36.6126 17.9977Z" fill="white"/>
<path d="M12.9531 35.9954C9.35685 35.9954 6.4308 34.8838 4.17496 32.6606C1.91912 30.4375 0.791199 27.5441 0.791199 23.9806L8.34336 23.4902C8.34336 25.1902 8.75203 26.5143 9.56936 27.4624C10.4194 28.4105 11.5637 28.8846 13.0022 28.8846C14.408 28.8846 15.5195 28.4269 16.3369 27.5114C17.1542 26.596 17.5629 25.3373 17.5629 23.7354V0.980804H25.5074V23.7354C25.5074 27.397 24.3467 30.3558 22.0255 32.6116C19.7043 34.8674 16.6802 35.9954 12.9531 35.9954Z" fill="white"/>
</svg>
